<svg xmlns="http://www.w3.org/2000/svg" width="17.456" height="17.457" viewBox="0 0 17.456 17.457"><defs><style>.a{fill:#f3f3fb;}</style></defs><path class="a" d="M16.056,11.458a9.911,9.911,0,0,1-3.113-.5,1.37,1.37,0,0,0-1.384.292L9.6,12.736A10.847,10.847,0,0,1,4.72,7.86L6.158,5.948A1.411,1.411,0,0,0,6.5,4.519a9.926,9.926,0,0,1-.5-3.118A1.4,1.4,0,0,0,4.607,0H1.4A1.4,1.4,0,0,0,0,1.4,16.074,16.074,0,0,0,16.056,17.456a1.4,1.4,0,0,0,1.4-1.4v-3.2A1.4,1.4,0,0,0,16.056,11.458Zm.431,4.6a.431.431,0,0,1-.431.431A15.1,15.1,0,0,1,.97,1.4.431.431,0,0,1,1.4.97H4.607a.431.431,0,0,1,.431.431,10.875,10.875,0,0,0,.545,3.415.483.483,0,0,1-.153.5L3.762,7.52a.485.485,0,0,0-.045.512,12.038,12.038,0,0,0,5.707,5.707.483.483,0,0,0,.513-.045l2.258-1.711a.428.428,0,0,1,.439-.1,10.889,10.889,0,0,0,3.422.546.431.431,0,0,1,.431.431Z"/></svg>