<svg xmlns="http://www.w3.org/2000/svg" width="22.856" height="17.142" viewBox="0 0 22.856 17.142"><defs><style>.a{fill:#f3f3fb;}</style></defs><g transform="translate(0 -64)"><g transform="translate(0 64)"><path class="a" d="M20.951,64H1.9A1.907,1.907,0,0,0,0,65.9V79.237a1.907,1.907,0,0,0,1.9,1.9H20.951a1.907,1.907,0,0,0,1.9-1.9V65.9A1.907,1.907,0,0,0,20.951,64ZM1.9,64.952H20.951a.906.906,0,0,1,.2.04C19.5,66.5,14.033,71.5,12.119,73.228a.955.955,0,0,1-1.382,0C8.823,71.5,3.355,66.5,1.707,64.992A.91.91,0,0,1,1.9,64.952ZM.952,79.237V65.9a.92.92,0,0,1,.053-.263c1.262,1.155,5.077,4.645,7.551,6.895C6.091,74.654,2.275,78.273,1,79.486A.918.918,0,0,1,.952,79.237Zm20,.952H1.9a.911.911,0,0,1-.215-.043C3,78.893,6.845,75.254,9.267,73.182l.832.753a1.9,1.9,0,0,0,2.658,0l.832-.753c2.423,2.072,6.262,5.711,7.577,6.964A.91.91,0,0,1,20.951,80.19Zm.952-.952a.92.92,0,0,1-.05.248c-1.273-1.214-5.088-4.831-7.554-6.949,2.474-2.25,6.289-5.739,7.551-6.9a.92.92,0,0,1,.053.263Z" transform="translate(0 -64)"/></g></g></svg>