<svg xmlns="http://www.w3.org/2000/svg" width="24.721" height="34.06" viewBox="0 0 24.721 34.06"><defs><style>.a{fill:#d83345;}</style></defs><g transform="translate(-68)"><g transform="translate(68)"><g transform="translate(0)"><path class="a" d="M120.086,10.02V8.79h4.395v-1.1h-5.494V9.917c-.183-.009-.364-.028-.549-.028h-2.747V0h-1.1V9.889h-1.1V0h-1.1V10.987h6.043a10.449,10.449,0,0,1,10.438,10.438v7.691a3.85,3.85,0,0,1-3.846,3.846h-5.494A10.449,10.449,0,0,1,109.1,22.524V19.777H108v2.747A11.55,11.55,0,0,0,119.537,34.06h5.494a4.95,4.95,0,0,0,4.944-4.944V21.425A11.545,11.545,0,0,0,120.086,10.02Z" transform="translate(-105.253)"/><path class="a" d="M70.747,242.2h1.1v-1.1h1.1v2.2h1.1V240H68v1.1h2.747Z" transform="translate(-68 -223.519)"/><path class="a" d="M273.494,3.3H269.1V0H268V4.395h5.494Z" transform="translate(-254.266)"/><path class="a" d="M77.339,15.931v3.846h1.1V15.931a3.85,3.85,0,0,0-3.846-3.846H71.846V0h-1.1V12.086H68v1.1h6.592A2.75,2.75,0,0,1,77.339,15.931Z" transform="translate(-68)"/><path class="a" d="M254.2,240H252v1.1h2.2a3.3,3.3,0,0,1,3.3,3.3v1.384l-2.541,2.033.687.858,1.854-1.483v4.9h1.1v-2.153l1.854,1.483.687-.858-2.541-2.033v-4.131A4.4,4.4,0,0,0,254.2,240Z" transform="translate(-239.365 -223.519)"/><rect class="a" width="1" height="2" transform="translate(12.483 18.244)"/></g></g></g></svg>