<svg xmlns="http://www.w3.org/2000/svg" width="30.139" height="36.398" viewBox="0 0 30.139 36.398"><defs><style>.a{fill:#d83345;}</style></defs><path class="a" d="M54.44,16.575a.668.668,0,0,0-.955,0L43.366,26.694a3.542,3.542,0,0,0-.878,3.322,2.7,2.7,0,0,1-5.231,1.336,2.49,2.49,0,0,1-.076-.916.593.593,0,0,0-.191-.535.663.663,0,0,0-.535-.191,2.686,2.686,0,0,1-.535-5.346,2.49,2.49,0,0,1,.916.076,3.449,3.449,0,0,0,3.322-.878l6.033-6.033a.668.668,0,0,0,0-.955.624.624,0,0,0-.916,0l-6.033,6.033a2.052,2.052,0,0,1-2.062.5,4.062,4.062,0,0,0-4.2,1.489,4.483,4.483,0,0,0-.573,1.031A6.866,6.866,0,0,0,26.489,33.3l.115.573a4.025,4.025,0,0,0-1.6,5.46,4.274,4.274,0,0,0,1.451,1.527,2.257,2.257,0,0,1,1.107,1.833v9.393a.687.687,0,1,0,1.375,0V42.693a3.467,3.467,0,0,0-1.756-2.978,2.675,2.675,0,0,1-.916-3.666,2.739,2.739,0,0,1,1.947-1.3,2.643,2.643,0,0,1,2.444.955.754.754,0,0,0,.535.229.6.6,0,0,0,.5-.229,2.687,2.687,0,1,1,4.162,3.4,2.635,2.635,0,0,1-.687.611A3.5,3.5,0,0,0,33.4,42.693v9.393a.687.687,0,0,0,1.375,0V42.693a2.171,2.171,0,0,1,1.107-1.833,3.987,3.987,0,0,0,1.947-3.207,6.8,6.8,0,0,0,2.024-2.94,3.912,3.912,0,0,0,2.9-1.146,3.983,3.983,0,0,0,1.184-2.826,4.162,4.162,0,0,0-.115-.993,2.237,2.237,0,0,1,.5-2.062L54.478,17.53a.706.706,0,0,0-.038-.955ZM37.524,36.011a4.02,4.02,0,0,0-5.155-2.406,4.8,4.8,0,0,0-1.222.687,3.962,3.962,0,0,0-3.284-.878,9.459,9.459,0,0,1-.115-1.031,5.523,5.523,0,0,1,4.391-5.422,4,4,0,0,0,3.666,4.009,4.1,4.1,0,0,0,2.6,3.437A3.678,3.678,0,0,1,37.524,36.011Z" transform="translate(-24.506 -16.375)"/></svg>