<svg xmlns="http://www.w3.org/2000/svg" width="32.312" height="32.202" viewBox="0 0 32.312 32.202"><defs><style>.a{fill:#d83345;}</style></defs><g transform="translate(0 -0.66)"><g transform="translate(0 1.633)"><g transform="translate(0 0)"><path class="a" d="M19.4,18.817c-.008-.008-.017-.017-.025-.017-2.418-1.751-2.943-5.828-2.952-5.887a.668.668,0,0,0-1.326.158c.025.183.567,4.519,3.31,6.67a7.016,7.016,0,0,1-.517,1.092c-.092.167-.167.3-.217.409a.141.141,0,0,0-.017.042c-.133.375-.258.75-.384,1.117a14.324,14.324,0,0,1-1.618,3.677,14.323,14.323,0,0,1-3.052,3.268A12.143,12.143,0,0,1,10.589,30.4a15.593,15.593,0,0,0-2,1.017,9.7,9.7,0,0,0-1,.742,3.912,3.912,0,0,1-1.976,1.076c-.125.008-.242.025-.359.033a5.281,5.281,0,0,0-2.393.625C-.092,35.635-.025,39.645.008,41.571a.667.667,0,0,0,.667.659H.683a.675.675,0,0,0,.659-.675v-.008c-.058-2.693.175-5.336,2.176-6.512a4.052,4.052,0,0,1,1.834-.442c.125-.008.25-.025.375-.033A5.1,5.1,0,0,0,8.413,33.2a8.5,8.5,0,0,1,.875-.65,13.017,13.017,0,0,1,1.834-.926,13.373,13.373,0,0,0,2.235-1.176,16.042,16.042,0,0,0,3.385-3.6,15.639,15.639,0,0,0,1.793-4.019c.117-.35.242-.709.367-1.067.033-.058.092-.175.158-.283C19.535,20.618,20.186,19.443,19.4,18.817Z" transform="translate(0 -12.326)"/></g></g><g transform="translate(3.443 0.66)"><g transform="translate(0 0)"><path class="a" d="M68.629,10.292a8.233,8.233,0,0,0-6.362-4.461h-.033a4.687,4.687,0,0,0-.475-.017A1.761,1.761,0,0,1,61,5.706c-.008,0-.008-.008-.017-.008-.534-.3-2.635-2.71-2.751-4.419a.664.664,0,1,0-1.326.092c.142,2.218,2.493,4.961,3.419,5.495a2.751,2.751,0,0,0,1.417.292,2.7,2.7,0,0,1,.375.017,6.814,6.814,0,0,1,5.336,3.777A13.564,13.564,0,0,1,68.83,17.7c-.258,6.37-3.41,10.989-8.88,13.015C58.4,31.3,53,32.479,48.66,30.228a.008.008,0,0,1-.008-.008,6.946,6.946,0,0,1-2.335-2.109l-.008-.017c-.625-.842-1.476-2-3.152-1.342-1.859.7-1.859,3.394-1.859,4.536a.667.667,0,0,0,1.334,0c0-.8,0-2.91,1-3.293h.008c.659-.258.909-.05,1.6.884l.017.017.008.008a8.115,8.115,0,0,0,2.793,2.493A14.086,14.086,0,0,0,54.6,32.862c.342,0,.684-.008,1.034-.025a17.487,17.487,0,0,0,4.786-.892A14.252,14.252,0,0,0,67.5,26.484a16.67,16.67,0,0,0,2.66-8.755A14.95,14.95,0,0,0,68.629,10.292Z" transform="translate(-41.298 -0.66)"/></g></g><g transform="translate(8.449 15.573)"><path class="a" d="M121.661,180.595a1.728,1.728,0,0,0-1.209-1.076h-.025c-.359-.033-1.051.058-1.643,1.1a10.51,10.51,0,0,1-5.111,3.9,24.767,24.767,0,0,1-7.671,1.3,7.148,7.148,0,0,0-2.251.434,3.5,3.5,0,0,0-1.376,5.82,6.488,6.488,0,0,0,2.568,1.559,12.4,12.4,0,0,0,4.3.75,13.627,13.627,0,0,0,3.177-.384,14.532,14.532,0,0,0,6.529-3.644,10.737,10.737,0,0,0,2.91-4.394A6.986,6.986,0,0,0,121.661,180.595Zm-1.067,4.928a.029.029,0,0,1-.008.017,9.415,9.415,0,0,1-2.568,3.852,13.182,13.182,0,0,1-5.92,3.318,11.574,11.574,0,0,1-6.7-.325,5.313,5.313,0,0,1-2.043-1.217,2.166,2.166,0,0,1,.875-3.669c.008,0,.008,0,.017-.008a5.876,5.876,0,0,1,1.843-.342,26.085,26.085,0,0,0,8.054-1.384,11.508,11.508,0,0,0,5.761-4.436.183.183,0,0,0,.025-.042,1.314,1.314,0,0,1,.325-.417.963.963,0,0,1,.175.275c0,.008.008.017.017.025A5.644,5.644,0,0,1,120.593,185.523Z" transform="translate(-101.336 -179.514)"/></g></g></svg>