<svg xmlns="http://www.w3.org/2000/svg" width="37.425" height="31" viewBox="0 0 37.425 31"><defs><style>.a{fill:#d83345;}</style></defs><g transform="translate(-623.71 1019.052)"><g transform="translate(623.71 -1019.052)"><path class="a" d="M35.985,53.027A.548.548,0,1,0,35,53.51a13.974,13.974,0,0,1,1.328,6.074,12.6,12.6,0,0,1-3.315,8.874,4.878,4.878,0,0,1-7.731-5.787.535.535,0,0,0,.031-.054,4.9,4.9,0,0,1,.8-1.057,2.924,2.924,0,0,0,.475-.621l.006-.01c.031-.055.061-.111.088-.168a3.031,3.031,0,0,1,1.076,1.2.548.548,0,0,0,.976-.5,3.961,3.961,0,0,0-1.791-1.8c0-.025,0-.049,0-.074a2.825,2.825,0,0,0-.029-.4,3.944,3.944,0,0,0,1.818-1.818.548.548,0,1,0-.976-.5,2.959,2.959,0,0,1-1.219,1.281q-.037-.061-.078-.12L26.443,58a2.994,2.994,0,0,0-.328-.389,4.877,4.877,0,1,1,6.9-6.9c.235.235.461.485.673.743a.548.548,0,0,0,.848-.694c-.234-.287-.485-.564-.746-.824a5.974,5.974,0,0,0-9.369,7.261l-.742-.259a3.456,3.456,0,0,1-1.862-1.55l-1.024-1.8a3.39,3.39,0,0,1-.444-1.677v-6.3a1.649,1.649,0,0,0-1.557-1.665,1.622,1.622,0,0,0-1.207.45,1.643,1.643,0,0,0-.507,1.184v6.33a3.391,3.391,0,0,1-.444,1.677l-1.024,1.795a3.456,3.456,0,0,1-1.862,1.55l-.738.258a5.975,5.975,0,0,0-9.371-7.259A13.68,13.68,0,0,0,0,59.583,14.176,14.176,0,0,0,2.818,68.32a.548.548,0,1,0,.856-.686A13.08,13.08,0,0,1,1.1,59.583a12.6,12.6,0,0,1,3.315-8.874,4.877,4.877,0,1,1,6.9,6.9,3,3,0,0,0-.327.388l-.02.028q-.041.06-.079.121a2.959,2.959,0,0,1-1.219-1.281.548.548,0,0,0-.976.5,3.944,3.944,0,0,0,1.818,1.818,2.827,2.827,0,0,0-.029.4c0,.025,0,.05,0,.074a3.96,3.96,0,0,0-1.791,1.8.548.548,0,1,0,.976.5,3.031,3.031,0,0,1,1.076-1.2c.029.06.06.119.093.177l.013.022a2.929,2.929,0,0,0,.464.6,4.9,4.9,0,0,1,.8,1.056.555.555,0,0,0,.031.055,4.879,4.879,0,0,1-6.71,6.569.548.548,0,1,0-.546.951,5.979,5.979,0,0,0,8.685-6.942l.077.024a1.149,1.149,0,0,1,.809,1.1v8.937a1.636,1.636,0,0,0,3.271,0V64.375a4.406,4.406,0,0,0-3.1-4.223l-.09-.028.288-.1a6.728,6.728,0,0,0,3.624-3.018l.262-.46.262.46A6.728,6.728,0,0,0,22.6,60.023l.289.1-.089.028a4.406,4.406,0,0,0-3.1,4.223v8.937a1.636,1.636,0,0,0,3.271,0V64.375a1.149,1.149,0,0,1,.809-1.1l.077-.024a5.976,5.976,0,0,0,9.936,5.983,13.679,13.679,0,0,0,3.636-9.65A15.075,15.075,0,0,0,35.985,53.027ZM16.633,64.375v8.937a.539.539,0,0,1-1.079,0V64.375a2.241,2.241,0,0,0-1.578-2.147l-1.006-.315a6,6,0,0,0-.746-.981l.578-.2,1.5.469A3.315,3.315,0,0,1,16.633,64.375Zm3.293-7.913-.643-1.128a.658.658,0,0,0-1.142,0L17.5,56.462a5.631,5.631,0,0,1-3.033,2.526l-2.841.993a1.684,1.684,0,0,1-.048-.4,1.618,1.618,0,0,1,.2-.8l2.33-.814a4.553,4.553,0,0,0,2.453-2.042l1.024-1.795a4.489,4.489,0,0,0,.588-2.22v-6.33a.539.539,0,0,1,.566-.539.561.561,0,0,1,.512.569v6.3a4.488,4.488,0,0,0,.589,2.22l1.024,1.8a4.552,4.552,0,0,0,2.453,2.042l2.332.815a1.619,1.619,0,0,1,.2.8,1.685,1.685,0,0,1-.049.4l-2.843-.994A5.631,5.631,0,0,1,19.926,56.462Zm3.522,5.766a2.241,2.241,0,0,0-1.577,2.147v8.937a.539.539,0,0,1-1.078,0V64.375A3.315,3.315,0,0,1,23.125,61.2l1.5-.468.579.2a6,6,0,0,0-.746.98Z" transform="translate(0 -43.947)"/></g></g></svg>